<?xml version="1.0" encoding="utf-8"?>
<!-- Generator: Adobe Illustrator 19.2.1, SVG Export Plug-In . SVG Version: 6.00 Build 0)  -->
<svg version="1.1" id="Layer_1" xmlns="http://www.w3.org/2000/svg" xmlns:xlink="http://www.w3.org/1999/xlink" x="0px" y="0px"
	 width="165.7px" height="33px" viewBox="0 0 165.7 33" style="enable-background:new 0 0 165.7 33;" xml:space="preserve">
<style type="text/css">
	.st0{fill:#FFFFFF;}
</style>
<g>
	<path class="st0" d="M19.1,4.9c0.5,0.7,0.7,1.5,0.7,2.4c0,1.1-0.3,2.2-0.9,3.1c-0.6,1-1.6,1.9-2.9,2.8V9.3h-0.6v13.4
		c-1.2-0.4-2.4-0.6-3.7-0.6c-0.8,0-1.6,0.1-2.5,0.2c1.7-1.1,2.7-2,3.3-2.6c0.5-0.6,0.9-1.2,1.1-1.8c0.2-0.6,0.3-1.5,0.3-2.7V8.4
		c0-1.2,0.1-2.1,0.2-2.6c0.1-0.5,0.4-1,0.7-1.3c0.4-0.4,1-0.8,2.1-1.4C17.9,3.7,18.6,4.3,19.1,4.9z M14.6,1.7
		c-1,0.3-1.7,0.5-2.7,0.6c-0.5,0.1-1.2,0.1-1.8,0.1C9.4,2.4,8.5,2.3,7.4,2c-1.1-0.3-2-0.5-2.5-0.5C4.2,1.5,3.6,1.7,3,2.1
		C2.4,2.5,2,2.9,1.6,3.7c-0.3,0.5-0.4,1-0.4,1.6l0,0c0.3-0.5,0.7-0.9,1.1-1.1c0.5-0.3,0.8-0.3,1.3-0.3c0.2,0,0.5,0.1,1,0.2
		c0.9,0.3,1.7,0.4,2.3,0.4c0.9,0,1.8-0.1,3.1-0.6C8.6,5,7.8,5.6,7.4,6.2c-0.5,0.6-0.8,1.2-1.1,2C6.1,8.9,6,10,5.9,11.6
		c-0.5-0.1-1-0.1-1.3-0.1c-0.9,0-1.7,0.3-2.3,0.9s-1,1.5-1.1,2.5V15c0,0,0.4-0.6,0.9-0.9c0.4-0.3,1.2-0.5,1.7-0.5
		c0.9,0,1.5,0.4,1.9,1.2c0.3,0.5,0.4,1.3,0.4,2.4c-0.2,0-0.4,0-0.5,0c-0.9,0-1.6,0.3-2.1,0.9s-1,1.4-1,2.3c0,0.1,0,0.1,0,0.3v0.2
		c0.1-0.6,0.6-1.1,1.1-1.4c0.3-0.2,0.7-0.3,1.1-0.3c0.4,0,0.7,0.2,1,0.5s0.4,0.7,0.4,1.2c0,0.4-0.1,0.9-0.4,1.3
		c-0.2,0.5-0.8,1.2-1.7,2.3c-0.9,1-1.4,1.8-1.7,2.4c-0.3,0.5-0.4,1-0.4,1.5s0.1,0.8,0.3,1.1c0.2,0.3,0.5,0.5,0.7,0.6
		c0.6,0.1,1,0,1.1-0.1c0.3-0.3,0.3-0.7,0-0.9c-0.3-0.2-0.5,0.1-1-0.4c-0.2-0.2-0.2-1-0.1-1.3c0.1-0.5,0.4-1,1.1-1.6
		c1-0.8,2.3-1.1,4-1.1c1.4,0,2.6,0.2,3.8,0.7c0.7,0.3,1.5,0.7,2.3,1.4c2.4-2.3,5.3-3.7,8.6-4.1V17c0-1.3-0.1-2.2-0.4-2.8
		c-0.2-0.6-0.7-1-1.2-1.4c-0.6-0.4-1.5-0.6-2.8-0.7c1.5-1.3,2.5-2.5,3.1-3.4c0.6-1,0.8-1.9,0.8-2.8c0-1.1-0.4-2.1-1.1-2.9
		c-0.5-0.6-1.2-1.1-2.2-1.4c-3.1,1.1-5.1,2-6,2.6C12,4.9,11.4,5.7,11,6.6c-0.3,0.9-0.5,2.5-0.5,4.8v4.9c0,1.8-0.3,3.2-0.9,4.2
		c-0.6,1-1.7,1.8-3.4,2.7c0.9-1.1,1.4-2,1.7-2.8s0.4-2,0.4-3.5V10c0-1.8,0.4-3.3,1.1-4.4c0.7-1.1,2.4-2.6,4-3.5
		C14.2,2,14.4,1.9,14.6,1.7L14.6,1.7z M18.1,12.5c0.8,0.4,1.3,0.9,1.7,1.3c0.4,0.6,0.4,1.5,0.4,2.2H16v-2
		C16.4,13.9,17.1,13.3,18.1,12.5z M16,19.3v-2.6h4.2v2.6H16z M17.2,23.8c-0.4-0.3-0.7-0.5-1.2-0.7V20h4.2v2.4
		C19.2,22.8,18.1,23.2,17.2,23.8z"/>
	<path class="st0" d="M28.4,15.7l-1.8-4.2l4.9,1.7v4.1L28.4,15.7z M34.6,10.9C34.5,11,34.3,11,34.1,11c-0.4,0-1.1-0.1-1.9-0.4
		c-0.8-0.3-1.6-0.7-2.3-1.1c-0.9,1-1.9,1.5-3,1.5c-0.2,0-0.5,0-0.8-0.1l-0.2,0.5l1.7,4.1c-1.1,1.5-2,2.8-2.4,4
		c-0.4,0.9-0.5,1.8-0.5,2.8c0,1.5,0.8,3,2.5,4.5l4.4-3.9c0,0.9,0.2,1.6,0.4,2.1s0.7,1.1,1.5,1.7l3.2-3l-0.3-0.5
		c-0.4,0.3-0.6,0.5-0.7,0.6c-0.1,0.1-0.2,0.1-0.4,0.1s-0.4-0.1-0.6-0.4c-0.2-0.3-0.2-1-0.2-2.1v-6.9c0-0.8,0.1-1.5,0.2-1.9
		c0.1-0.5,0.5-1.2,1-2.1l-0.5-0.2C34.9,10.5,34.7,10.8,34.6,10.9z M29.4,24c-1.4-1.1-2.1-2.6-2.1-4.3c0-1,0.3-2.1,0.8-3.5l3.5,1.8v4
		L29.4,24z"/>
	<path class="st0" d="M41.8,13.2L46,9.4l2.4,2.5l1.4-1.5l0.4,0.4c-0.7,0.7-1.1,1.2-1.2,1.6c-0.2,0.5-0.3,1.1-0.3,2v7.7
		c0,0.7,0.1,1.2,0.3,1.6c0.1,0.2,0.3,0.3,0.4,0.3c0.1,0,0.4-0.2,0.9-0.6l0.3,0.5l-3.1,2.8c-0.8-0.7-1.3-1.3-1.5-1.8
		s-0.3-1.4-0.3-2.5v-8.9L44.1,12l-2.3,2.1v9.2l1,1.2l-2.5,2.3l-2.6-2.3l1.1-1.2V15c0-1.2-0.1-2-0.3-2.4c-0.1-0.3-0.3-0.4-0.5-0.4
		s-0.5,0.2-0.9,0.5l-0.3-0.5l3.1-2.7c0.8,0.7,1.4,1.2,1.6,1.6c0.2,0.4,0.3,0.9,0.3,1.6L41.8,13.2L41.8,13.2z"/>
	<path class="st0" d="M57.2,24.1l-2.1-1.7V11.8l3.9,1.5v8.4L57.2,24.1z M52.1,11.8v11.7l3.4,2.7l-3.4,4.5l0.2,0.5
		c1.7-0.5,3.1-0.8,4.4-0.8c0.5,0,1.1,0.1,1.7,0.2c0.6,0.1,1.2,0.3,1.8,0.6c1.9-1,3-1.7,3.5-2.2c0.4-0.5,0.7-1,0.7-1.5
		s-0.4-1.4-1.2-2.6c-0.5-0.7-0.9-1.4-1-1.9c-0.1-0.4-0.2-1.2-0.2-2.4v-7.3l2.6,0.6v-3.6l-2.7,1.5l-4.5-2.4
		C55.8,10.6,54,11.4,52.1,11.8z M59.8,25.5c0.5,0.8,1.3,1.9,2.6,3.3l-0.6,0.4c-0.7-0.4-1.4-0.7-2.1-0.9C59,28.1,58.3,28,57.6,28
		c-0.8,0-1.8,0.1-3,0.3l4.3-5.6C59.1,23.8,59.4,24.7,59.8,25.5z"/>
	<path class="st0" d="M69.1,19.3V15l2.6-2.8l2.1,2.6L69.1,19.3z M69,4.1c-0.6,0.3-1.2,0.8-1.8,1.5c-0.4-0.5-0.8-0.8-1.1-1
		S65.2,4.1,64.6,4l0,0c0.5,0.3,0.9,0.9,1,1.2c0.2,0.3,0.3,0.7,0.4,1.3c0.1,0.4,0.1,1,0.1,1.9v11.8c0,1.5-0.1,2.4-0.2,2.7
		c-0.1,0.4-0.4,0.7-0.8,1v0.3c0.8,0.3,1.5,0.6,2,1s1.1,0.8,1.7,1.5l4.1-3.7c0.1,1,0.2,1.7,0.4,2.2s0.5,1,0.9,1.4l3.3-2.7l-0.3-0.5
		c-0.5,0.4-0.8,0.7-0.9,0.7c-0.1,0-0.2-0.1-0.3-0.3c-0.1-0.2-0.3-1-0.5-2.4S75,19,74.6,18.3s-0.9-1.4-1.7-2l3.3-3.3l-2.9-3.6
		L69,14.1V8.5c0-1.3,0.1-2.3,0.4-2.9C69.6,5,70.1,4,71,3.5V3.4C70.3,3.6,69.6,3.8,69,4.1z M72.9,22.3l-2.1,1.9l-1.7-1.3v-2.8
		l1.7-1.7C71.9,19.2,72.6,20.5,72.9,22.3z"/>
	<path class="st0" d="M94.8,19.3V15l2.6-2.8l2.1,2.6L94.8,19.3z M94.7,4.1c-0.6,0.3-1.2,0.8-1.8,1.5c-0.4-0.5-0.8-0.8-1.1-1
		S90.9,4.1,90.3,4l0,0c0.5,0.3,0.9,0.9,1,1.2c0.2,0.3,0.3,0.7,0.4,1.3c0.1,0.4,0.1,1,0.1,1.9v11.8c0,1.5-0.1,2.4-0.2,2.7
		c-0.1,0.4-0.4,0.7-0.8,1v0.3c0.8,0.3,1.5,0.6,2,1s1.1,0.8,1.7,1.5l4.1-3.7c0.1,1,0.2,1.7,0.4,2.2s0.5,1,0.9,1.4l3.3-2.7l-0.3-0.5
		c-0.5,0.4-0.8,0.7-0.9,0.7c-0.1,0-0.2-0.1-0.3-0.3c-0.1-0.2-0.3-1-0.5-2.4s-0.5-2.4-0.9-3.1s-0.9-1.4-1.7-2l3.3-3.3L99,9.4
		l-4.3,4.7V8.5c0-1.3,0.1-2.3,0.4-2.9C95.3,5,95.8,4,96.7,3.5V3.4C96.1,3.6,95.3,3.8,94.7,4.1z M98.6,22.3l-2.1,1.9l-1.7-1.3v-2.8
		l1.7-1.7C97.6,19.2,98.3,20.5,98.6,22.3z"/>
	<path class="st0" d="M83.3,12.6c0.5,0.2,1.3,0.6,2.5,1.2v10.3l-3.7-1.7V12.2C82.6,12.3,83,12.4,83.3,12.6z M83.7,9.5
		c-1.2,1.2-2.7,2.1-4.5,2.8v8.9c0,0.9-0.1,1.5-0.2,1.9c-0.1,0.3-0.3,0.6-0.7,0.9l0.1,0.3c0.9,0,1.7,0.2,2.3,0.5c0.9,0.4,2.1,1,3.4,2
		c0.4-0.5,0.9-0.9,1.4-1.2c0.6-0.4,1.7-1,3.1-1.6V11.8C86.7,11.3,85,10.5,83.7,9.5z"/>
	<path class="st0" d="M121.1,4.6c1.5,0.9,2.7,1.7,3.4,2.4c0.8,0.7,1.3,1.4,1.5,2s0.4,2.9,0.4,3.9h-7.2V6L121.1,4.6z M116.9,6.9
		c0-1.1-0.2-1.9-0.5-2.6c-0.3-0.6-0.8-1.2-1.5-1.6s-1.5-0.6-2.4-0.6c-0.8,0-1.5,0.2-2.2,0.5c-0.6,0.3-1.4,1.2-1.7,2l0.1,0.1
		c0.8-0.7,1.6-0.8,2.2-0.8c0.6,0,1.2,0.2,1.7,0.5s0.8,0.7,1,1.3c0.2,0.5,0.3,1.3,0.3,2.4v1.2l-3.7,2.8c-1.7,1.2-2.6,1.6-2.6,1.6v0.1
		c0,0,0.2,0,0.9,0.2c0.8,0.2,2.3,0.9,3.2,1.7c0.9,0.7,1.4,1.6,1.8,2.5c0.3,0.9,0.5,2.1,0.5,3.6c-1.4,0.3-2.5,0.8-3.5,1.5
		c-0.9,0.7-2.5,2.2-3.1,3.9h0.1c0.9-1.1,2-1.4,2.9-1.8s2.1-0.6,3.6-0.7v6.8h5.4V25c0.9,0.1,1.7,0.2,2.6,0.5c0.9,0.3,1.9,0.7,3.1,1.2
		l4.4-4.5V11.6c0-1.5-0.1-2.6-0.4-3.4c-0.2-0.8-0.8-1.6-1.5-2.5c-0.8-0.9-2.2-2.1-4.2-3.5l-4,3v-3h-0.7v3.5L116.9,6.9z M116.9,30.7
		V7.8l1.7-1.3v24.2H116.9z M112.5,13.6c-0.5-0.4-1-0.7-1.7-1.1l3.1-2.4V15C113.4,14.4,112.9,13.9,112.5,13.6z M126.5,13.6v2.5h-7.2
		v-2.5H126.5z M126.5,16.9V24c-1.5-0.8-2.8-1.4-3.9-1.7c-1.1-0.3-2.2-0.5-3.3-0.6v-4.8H126.5z"/>
	<path class="st0" d="M136.4,12.6c0.5,0.2,1.3,0.6,2.5,1.2v10.3l-3.7-1.7V12.2C135.6,12.3,136.1,12.4,136.4,12.6z M136.7,9.5
		c-1.2,1.2-2.7,2.1-4.5,2.8v8.9c0,0.9-0.1,1.5-0.2,1.9c-0.1,0.3-0.3,0.6-0.7,0.9l0.1,0.3c0.9,0,1.7,0.2,2.3,0.5c0.9,0.4,2.1,1,3.4,2
		c0.4-0.5,0.9-0.9,1.4-1.2c0.6-0.4,1.7-1,3.1-1.6V11.8C139.8,11.3,138.1,10.5,136.7,9.5z"/>
	<path class="st0" d="M150.7,13.3c0.5,0,1-0.1,1.7-0.3l-3.1,4.7l-2-1.1V12C148.4,12.9,149.5,13.3,150.7,13.3z M155.2,9.8
		c0.2-0.4,0.3-0.9,0.3-1.4s-0.1-0.8-0.3-1.1c-0.2-0.3-0.5-0.4-0.7-0.4S154.1,7,154,7.2c-0.2,0.2-0.2,0.5-0.2,0.8
		c0,0.4,0.2,0.7,0.6,1.1c0.2,0.2,0.3,0.4,0.3,0.6c0,0.3-0.1,0.6-0.4,0.8c-0.3,0.3-0.7,0.4-1.2,0.4s-1-0.1-1.5-0.2
		c-0.7-0.2-1.7-0.6-3-1.2c-0.5,0.7-1.1,1.3-1.6,1.8c-0.6,0.4-1.3,0.8-2.3,1.2v6l3.1,1.9l-1.8,2.8l-1.3,1.8c-0.3,0.4-0.5,0.6-0.6,0.7
		c-0.2,0.2-0.3,0.4-0.3,0.5s0.1,0.2,0.2,0.4c0.1,0.1,0.2,0.2,0.3,0.2s0.3-0.1,0.6-0.3c0.7-0.6,1.5-0.9,2.4-0.9
		c0.6,0,1.1,0.1,1.7,0.3c0.5,0.2,1.1,0.5,1.8,1c0.8-0.9,1.6-1.5,2.2-1.8c0.7-0.4,1.4-0.6,2.2-0.7v-6.8l-3.3-2l2.8-4
		C154.7,10.8,155,10.2,155.2,9.8z M151.9,24c-1.2-0.8-2.3-1.2-3.4-1.2c-0.3,0-0.6,0-1,0.1s-0.8,0.2-1.2,0.4l3.5-5.2l2.1,1.3
		L151.9,24L151.9,24z"/>
	<path class="st0" d="M156.5,11.9v-0.7l4.4-6.1h0.1l-0.2,5h2.9v1.8h-2.9v10.9l1.6,1.3l0.9-0.8l0.4,0.5l-3.2,2.8
		c-1.1-1.2-2.3-2.1-3.7-2.5v-0.3c0.4-0.3,0.6-0.6,0.8-0.9c0.2-0.4,0.2-1,0.2-1.7v-9.3C157.8,11.9,156.5,11.9,156.5,11.9z"/>
</g>
</svg>
