<svg xmlns="http://www.w3.org/2000/svg" xmlns:xlink="http://www.w3.org/1999/xlink" width="28.279" height="22.249" viewBox="0 0 28.279 22.249">
  <defs>
    <clipPath id="clip-path">
      <rect id="Rectangle_2462" data-name="Rectangle 2462" width="28.279" height="22.249" transform="translate(-2 -2)" fill="none"/>
    </clipPath>
  </defs>
  <g id="Group_1777" data-name="Group 1777" transform="translate(2 2)" clip-path="url(#clip-path)">
    <path id="Path_420" data-name="Path 420" d="M9.989,24.18a5.548,5.548,0,0,1-3.357-1.419A5.759,5.759,0,0,1,5.25,19.316v-9.2A5.9,5.9,0,0,1,6.632,6.669,5.492,5.492,0,0,1,9.989,5.25h9A5.415,5.415,0,0,1,22.35,6.669a5.863,5.863,0,0,1,1.382,3.445v8.35l5.647,5.715Z" transform="translate(-5.631 -5.591)" fill="#fff" stroke="#00427a" stroke-width="1"/>
    <path id="Path_421" data-name="Path 421" d="M24.5,19.153H4.844a5.839,5.839,0,0,1-1.21-.212A5.02,5.02,0,0,1,1.414,17.7,5.116,5.116,0,0,1,.2,15.428,6.212,6.212,0,0,1,0,14.181V4.971A6.371,6.371,0,0,1,.209,3.726a5.229,5.229,0,0,1,1.2-2.274A4.926,4.926,0,0,1,3.627.211,5.862,5.862,0,0,1,4.844,0h9.012a5.728,5.728,0,0,1,1.214.206,4.9,4.9,0,0,1,2.217,1.246,5.241,5.241,0,0,1,1.208,2.279,6.251,6.251,0,0,1,.206,1.24v8.308ZM4.85,18.93H23.973l-5.491-5.557V4.978a5.782,5.782,0,0,0-1.351-3.369A5.338,5.338,0,0,0,13.85.223h-9A5.415,5.415,0,0,0,1.569,1.609,5.821,5.821,0,0,0,.218,4.978v9.2a5.677,5.677,0,0,0,1.35,3.368A5.463,5.463,0,0,0,4.85,18.93" transform="translate(-0.49 -0.452)" fill="#00427a"/>
    <path id="Path_422" data-name="Path 422" d="M500.356,507.03v-3.445h.934c1.1,0,1.242-.06,1.484-.386s.344-.522.346-1.47c0-.486,0-.982,0-.982l5.832,6.283Z" transform="translate(-490.462 -490.548)" fill="#00a796"/>
    <path id="Path_423" data-name="Path 423" d="M106.12,118.894a2.806,2.806,0,0,1-1.8-1.84,6.223,6.223,0,0,1-.106-2.166c.008-.72.017-2.13,0-2.108h3.357v.959c0,1.034.04,1.164.335,1.491.26.288.49.387,1.4.387h1.029v3.445h-1.988A6.585,6.585,0,0,1,106.12,118.894Zm-1.909-9.406a19.935,19.935,0,0,1,.1-3.085,2.82,2.82,0,0,1,1.735-1.9c.3-.113.413-.153,2.275-.153h2.014v3.445h-.979c-1.022,0-1.142.042-1.448.357s-.294.454-.337,1.51v.97h-3.357Zm10.979,1.144s0-.494,0-1.1c0-1-.189-1.179-.378-1.382s-.263-.352-1.32-.356c-.371,0-1.066,0-1.066,0v-3.445H114.1c.966,0,1.88.026,2.093.059a2.706,2.706,0,0,1,1.451.741,3.3,3.3,0,0,1,.8,1.551,10.69,10.69,0,0,1,.107,1.432c0,1.116,0,2.5,0,2.5Z" transform="translate(-102.532 -102.582)" fill="#00427a"/>
  </g>
</svg>
